<?xml version="1.0" encoding="utf-8"?>
<!-- Generator: Adobe Illustrator 25.2.1, SVG Export Plug-In . SVG Version: 6.00 Build 0)  -->
<svg version="1.1" id="Layer_1" xmlns="http://www.w3.org/2000/svg" xmlns:xlink="http://www.w3.org/1999/xlink" x="0px" y="0px"
	 viewBox="0 0 1883.3 496.5" style="enable-background:new 0 0 1883.3 496.5;" xml:space="preserve">
<style type="text/css">
	.st0{fill:#013A44;}
	.st1{fill:#4B8047;}
	.st2{fill:#225087;}
	.st3{fill:#F1564A;}
	.st4{fill:#D9D9D9;}
	.st5{fill:#19A1A1;}
	.st6{fill:#231F20;}
	.st7{fill:#9BC792;}
	.st8{fill:#4C7F3E;}
	.st9{fill:#2775BB;}
	.st10{fill:none;}
	.st11{fill:#80C88E;}
	.st12{fill:#24282A;}
	.st13{fill:#80C88D;}
	.st14{fill:#A8D04B;}
	.st15{fill:#F99F44;}
	.st16{fill:#AA57A2;}
	.st17{fill:#24272A;}
	.st18{fill-rule:evenodd;clip-rule:evenodd;fill:#FFEA00;}
	.st19{fill:#462DE0;}
	.st20{fill:#0B3C84;}
	.st21{fill:#005CD6;}
	.st22{fill:#FEFEFE;}
	.st23{fill:#4085DF;}
	.st24{fill:#9BEBE4;}
	.st25{fill:#A1F5E3;}
	.st26{fill:#4A9BDD;}
	.st27{fill:#4084DF;}
	.st28{fill:#005CD5;}
	.st29{fill:#1D9BCF;}
	.st30{fill:#23A7CE;}
	.st31{fill:#26AECE;}
	.st32{fill:#1A95D0;}
	.st33{fill:#20A2CF;}
	.st34{fill:#0F7DD2;}
	.st35{fill:#35CDCB;}
	.st36{fill:#39D7CA;}
	.st37{fill:#0D78D3;}
	.st38{fill:#188FD0;}
	.st39{fill:#1283D2;}
	.st40{fill:#0A72D3;}
	.st41{fill:#1487D1;}
	.st42{fill:#1F9FCF;}
	.st43{fill:#0261D5;}
	.st44{fill:#37D2CA;}
	.st45{fill:#28B3CD;}
	.st46{fill:#086DD3;}
	.st47{fill:#0669D4;}
	.st48{fill:#168BD1;}
	.st49{fill:#30C2CC;}
	.st50{fill:#0464D4;}
	.st51{fill:#2AB6CD;}
	.st52{fill:#2CBACD;}
	.st53{fill:#32C7CB;}
	.st54{fill:#2EBECC;}
	.st55{fill:#2EBFCC;}
	.st56{fill:#107ED2;}
	.st57{fill:#1385D1;}
	.st58{fill:#0B73D3;}
	.st59{fill:#20A0CF;}
	.st60{fill:#0D78D2;}
	.st61{fill:#1282D2;}
	.st62{fill:#1D9ACF;}
	.st63{fill:#1B96D0;}
	.st64{fill:#096ED3;}
	.st65{fill:#1991D0;}
	.st66{fill:#0362D5;}
	.st67{fill:#0465D4;}
	.st68{fill:#28B1CD;}
	.st69{fill:#25ABCE;}
	.st70{fill:#2AB7CD;}
	.st71{fill:#2CBBCC;}
	.st72{fill:#1E9DCF;}
	.st73{fill:#2EC0CC;}
	.st74{fill:#34CDCB;}
	.st75{fill:#30C3CC;}
	.st76{fill:#42EBC8;}
	.st77{fill:#0E79D2;}
	.st78{fill:#0C75D3;}
	.st79{fill:#0B70D4;}
	.st80{fill:#39D6CA;}
	.st81{fill:#36D1CA;}
	.st82{fill:#0B74D3;}
	.st83{fill:#43ECC8;}
	.st84{fill:#1180D2;}
	.st85{fill:#1486D1;}
	.st86{fill:#0F7BD2;}
	.st87{fill:#1386D1;}
	.st88{fill:#168AD1;}
	.st89{fill:#40E5C9;}
	.st90{fill:#3DE0C9;}
	.st91{fill:#168CD1;}
	.st92{fill:#1890D0;}
	.st93{fill:#1A94D0;}
	.st94{fill:#0362D4;}
	.st95{fill:#41E7C8;}
	.st96{fill:#0566D4;}
	.st97{fill:#1E9CCF;}
	.st98{fill:#27B1CD;}
	.st99{fill:#23A8CE;}
	.st100{fill:#25ACCE;}
	.st101{fill:#1A93D0;}
	.st102{fill:#1B97D0;}
	.st103{fill:#0D77D3;}
	.st104{fill:#21A3CF;}
	.st105{fill:#2FC2CC;}
	.st106{fill:#1589D1;}
	.st107{fill:#2DBDCC;}
	.st108{fill:#34CCCB;}
	.st109{fill:#37D1CA;}
	.st110{fill:#3CDEC9;}
	.st111{fill:#31C6CB;}
	.st112{fill:#3AD8CA;}
	.st113{fill:#27B0CD;}
	.st114{fill:#3BDCC9;}
	.st115{fill:#24AACE;}
	.st116{fill:#22A5CE;}
	.st117{fill:#1D99D0;}
	.st118{fill:#20A1CF;}
	.st119{fill:#1F9CD0;}
	.st120{fill:#3FE3C9;}
	.st121{fill:#086ED3;}
	.st122{fill:#2DBBCC;}
	.st123{fill:#38D3CA;}
	.st124{fill:#29B5CD;}
	.st125{fill:#26ADCE;}
	.st126{fill:#24A8CE;}
	.st127{fill:#37D3CA;}
	.st128{fill:#1C95D0;}
	.st129{fill:#2FC1CC;}
	.st130{fill:#36CFCB;}
	.st131{fill:#33C9CB;}
	.st132{fill:#2BB7CD;}
	.st133{fill:#2DBCCC;}
	.st134{fill:#23A6CE;}
	.st135{fill:#35C9CC;}
	.st136{fill:#E3262D;}
	.st137{fill:none;stroke:#FFFFFF;stroke-width:1.4384;stroke-miterlimit:10;}
	.st138{fill:none;stroke:#FFFFFF;stroke-width:1.445;stroke-miterlimit:10;}
	.st139{fill:#FFFFFF;stroke:#FFFFFF;stroke-width:1.4384;stroke-miterlimit:10;}
	.st140{fill:#FFFFFF;}
	.st141{fill:#FFFFFF;stroke:#FFFFFF;stroke-width:1.445;stroke-miterlimit:10;}
</style>
<g>
	<path class="st9" d="M652.8,483c-18.4,0-34.8-3.2-49.4-9.7c-14.5-6.4-26-16.2-34.3-29.2c-8.3-13-12.5-29.3-12.5-48.9v-7.5h30.1v7.5
		c0,20.8,6.2,36.3,18.5,46.4c12.3,10.2,28.2,15.2,47.5,15.2c19.8,0,35-4.4,45.4-13.3c10.4-8.8,15.6-19.9,15.6-33.3
		c0-9.3-2.4-16.7-7.1-22.2c-4.7-5.5-11.3-10-19.8-13.4c-8.5-3.5-18.4-6.5-29.8-9.1l-18.9-4.7c-14.8-3.8-27.8-8.5-39.2-14
		c-11.4-5.5-20.3-12.7-26.7-21.7c-6.4-9-9.6-20.5-9.6-34.6c0-14.1,3.6-26.3,10.7-36.5c7.1-10.3,17.2-18.2,30.1-23.6
		c12.9-5.5,27.9-8.2,44.8-8.2c17.2,0,32.6,2.9,46.3,8.8c13.7,5.9,24.4,14.5,32.3,25.8c7.9,11.3,11.8,25.6,11.8,42.8v15.1h-30.1
		v-15.1c0-12.2-2.6-22-7.8-29.4c-5.2-7.4-12.3-12.9-21.4-16.5c-9.1-3.6-19.4-5.4-31-5.4c-16.7,0-30.1,3.6-40.3,10.9
		c-10.2,7.3-15.2,17.6-15.2,31c0,8.8,2.2,16,6.5,21.5c4.4,5.5,10.5,10,18.5,13.4c8,3.5,17.5,6.5,28.7,9.1l18.9,4.7
		c14.8,3.1,28,7.3,39.7,12.7c11.7,5.4,21.1,12.7,28.1,21.9c7,9.2,10.5,21.2,10.5,36c0,14.8-3.8,27.7-11.3,38.7
		c-7.5,11-18.1,19.5-31.8,25.6C687.2,480,671.2,483,652.8,483z"/>
	<path class="st9" d="M879.3,483c-30.2,0-54.4-8.7-72.4-26c-18-17.3-27-42.6-27-75.8v-57.3c0-33.2,9-58.5,27-75.8
		c18-17.3,42.2-26,72.4-26c30.5,0,54.7,8.7,72.8,26c18,17.3,27,42.6,27,75.8v57.3c0,33.2-9,58.5-27,75.8
		C934,474.4,909.8,483,879.3,483z M879.3,456.2c22,0,39.1-6.5,51.2-19.5c12.1-13,18.1-31.1,18.1-54.3v-59.5
		c0-23.2-6.1-41.3-18.1-54.3c-12.1-13-29.2-19.5-51.2-19.5c-21.8,0-38.7,6.5-50.8,19.5c-12.1,13-18.1,31.1-18.1,54.3v59.5
		c0,23.2,6,41.3,18.1,54.3C840.6,449.7,857.5,456.2,879.3,456.2z"/>
	<path class="st9" d="M1026.3,478V227.2h30.5v223.6h128.5V478H1026.3z"/>
	<path class="st9" d="M1200.9,478l78.4-250.8h53.7l78.4,250.8h-31.6l-19.6-63.4H1252l-19.6,63.4H1200.9z M1259.7,387.4h92.6
		l-43.6-141.9h-5.1L1259.7,387.4z"/>
	<path class="st9" d="M1445.9,478V227.2h59.2l88.6,231.8h4.7V227.2h30.1V478h-59.2l-88.2-232.2h-5.1V478H1445.9z"/>
	<path class="st9" d="M1771.8,483c-18.9,0-35.5-3.9-49.9-11.6c-14.4-7.8-25.7-19.2-33.8-34.2c-8.1-15-12.2-33.7-12.2-55.9v-57.3
		c0-33.2,8.9-58.5,26.9-75.8c17.9-17.3,42-26,72.2-26c30,0,52.9,8.1,68.6,24.4c15.7,16.2,23.6,38,23.6,65.2v1.8h-30.1V311
		c0-11.9-2.2-22.6-6.5-31.9c-4.4-9.3-11.1-16.7-20.3-22c-9.2-5.4-20.9-8.1-35.2-8.1c-21.5,0-38.4,6.5-50.4,19.5
		c-12.1,13-18.1,31.2-18.1,54.6V382c0,23.4,6,41.6,18.1,54.6c12.1,13,29,19.5,50.8,19.5c21.3,0,37-6,47-17.9
		c10-11.9,15.1-27.8,15.1-47.7v-6.1h-76.9v-25.8h106.7V478h-27.6v-27.2h-5.1c-2.7,5.3-6.4,10.4-11.3,15.4c-4.8,5-11.4,9.1-19.6,12.2
		C1795.5,481.5,1784.8,483,1771.8,483z"/>
</g>
<g>
	<path class="st10" d="M250.8,125.3c-11.6,0-21,9.4-21,21c0,11.6,9.4,21,21,21c11.6,0,21-9.4,21-21
		C271.8,134.7,262.4,125.3,250.8,125.3z M250.8,160.6c-7.9,0-14.3-6.4-14.3-14.3c0-5.5,3.1-10.2,7.7-12.6c-0.1,0.5-0.2,1.1-0.2,1.6
		c0,3.8,3.1,6.8,6.8,6.8c3.8,0,6.8-3.1,6.8-6.8c0-0.6-0.1-1.1-0.2-1.7c4.5,2.4,7.7,7.1,7.7,12.6C265,154.2,258.7,160.6,250.8,160.6z
		"/>
	<path class="st9" d="M150,404.6c-9.3-6.6-17.9-13.7-26-21.4c-4.5-4.3-8.8-8.8-13-13.4c-63.9-71.3-79.9-177.6-32.1-266.9
		C86.7,88.4,95.8,75,106,62.8C75,83.5,48.5,111.9,29.7,147c-48.4,90.4-31.4,198.3,34.5,269.6c4.2,4.6,8.6,8.9,13.2,13.2
		c12.4,11.4,26.2,21.7,41.4,30.5L150,404.6L150,404.6z"/>
	<path class="st11" d="M296,78.7L256.4,24L246,9.6c-0.5,3.8-0.8,8.5-0.7,13.7C245.7,45.1,254.1,74.7,296,78.7z"/>
	<path class="st9" d="M334.1,74.7l13.1-23.4l-13.4-6.9L247.7,0l18.1,25l15.2,21l24,33.2h0l-6.3,3.2l-192.4,99h168.2L334.1,74.7z
		 M250.8,167.4c-11.6,0-21-9.4-21-21c0-11.6,9.4-21,21-21c11.6,0,21,9.4,21,21C271.8,157.9,262.4,167.4,250.8,167.4z"/>
	<path class="st12" d="M257.4,133.7c0.1,0.5,0.2,1.1,0.2,1.7c0,3.8-3.1,6.8-6.8,6.8c-3.8,0-6.8-3.1-6.8-6.8c0-0.6,0.1-1.1,0.2-1.6
		c-4.5,2.4-7.7,7.1-7.7,12.6c0,7.9,6.4,14.3,14.3,14.3c7.9,0,14.3-6.4,14.3-14.3C265,140.8,261.9,136.1,257.4,133.7z"/>
	<path class="st11" d="M393.5,210.1c-5.6-18.6-14.4-35.8-25.8-50.9L323.2,194c6.9,9.4,12.3,19.9,15.9,31.2L393.5,210.1z"/>
	<path class="st11" d="M169.8,415c-4.7-2-9.4-4.3-13.9-6.7l-0.1,0.2l-30.8,55.2c0.3,0.2,0.6,0.3,0.9,0.5c4,2.2,8.1,4.2,12.2,6.1
		c1.3,0.6,2.6,1.1,3.9,1.7c2.9,1.3,5.7,2.5,8.6,3.6c1.5,0.6,3,1.2,4.5,1.7c2.8,1.1,5.7,2,8.6,3c1.4,0.5,2.8,0.9,4.2,1.4
		c3.5,1.1,7,2.1,10.6,3c0.6,0.2,1.2,0.3,1.8,0.5c0.1,0,0.2,0.1,0.4,0.1c0.3,0.1,0.6,0.1,0.9,0.2c3.7,0.9,7.3,1.7,11,2.4
		c0.3,0.1,0.6,0.1,0.9,0.2c0.9,0.2,1.7,0.3,2.6,0.4c0.3,0.1,0.7,0.1,1,0.2c2.6,0.4,5.2,0.8,7.8,1.2l7.6-63
		C197.5,424.7,183.2,420.7,169.8,415L169.8,415z"/>
	<path class="st11" d="M220.2,420.7c5.4,0.5,10.8,0.8,16.3,0.8c14,0,27.7-1.8,40.7-5.1L262,361.9c-8.2,2-16.7,3.1-25.5,3.1
		c-3.2,0-6.3-0.2-9.5-0.4L220.2,420.7z"/>
	<path class="st11" d="M266.3,289.8l34.9,44.5c8.3-7,15.3-15.3,21-24.5L273,282.1C271,284.9,268.8,287.5,266.3,289.8z"/>
	<path class="st11" d="M285.8,421.2l17,61c2.6-0.8,5.2-1.5,7.7-2.4c1-0.3,2.1-0.7,3.1-1c4.3-1.5,8.7-3.2,12.9-4.9
		c0.9-0.4,1.8-0.8,2.7-1.2c3.4-1.5,6.8-3,10.2-4.7c1.2-0.6,2.4-1.2,3.6-1.8c3.7-1.9,7.3-3.8,10.9-5.9c0.5-0.3,1-0.5,1.5-0.8
		c4-2.4,7.9-4.9,11.8-7.4c1.1-0.7,2.1-1.5,3.2-2.2c2.7-1.9,5.3-3.8,7.9-5.8l-39.1-49.9C323.3,406.1,305.3,415.4,285.8,421.2
		L285.8,421.2z"/>
	<path class="st11" d="M251.6,298.8l15.2,54.5c10.4-3.3,20.1-8.4,28.8-14.7l-34.8-44.4C257.9,296,254.9,297.6,251.6,298.8z"/>
	<path class="st11" d="M276.4,276l49.3,27.8c4.9-9.5,8.3-19.8,10-30.7l-56.1-6.8C278.9,269.7,277.8,272.9,276.4,276z"/>
	<path class="st11" d="M337,257.5c0-8.1-1.1-16-2.9-23.6l-54.4,15.2c0.5,2.7,0.8,5.5,0.8,8.4c0,0.6-0.1,1.2-0.1,1.8l56.2,6.8
		C336.8,263.3,337,260.4,337,257.5z"/>
	<path class="st11" d="M273.7,234.2c1.6,2.6,3,5.3,4,8.2l54.5-15.2c-3.3-10.4-8.4-20.1-14.7-28.8l-40.7,31.9l-1.8,1.4l-1.9,1.5
		c0.1,0.2,0.2,0.3,0.3,0.5C273.5,233.9,273.6,234,273.7,234.2z"/>
	<path class="st11" d="M344.7,389.9l39.1,50c3.1-2.5,6.2-5,9.1-7.7c0.5-0.4,1-0.9,1.5-1.4c3-2.8,6-5.6,8.9-8.5c1-1,1.9-2,2.9-3
		c2.7-2.8,5.3-5.7,7.8-8.7c0.6-0.7,1.3-1.4,1.9-2.2c3.1-3.7,6-7.4,8.9-11.3c0.7-1,1.4-2,2.1-2.9c2.2-3.1,4.4-6.3,6.4-9.5
		c0.8-1.2,1.5-2.3,2.3-3.5c1.1-1.8,2.1-3.6,3.2-5.5l-55.1-31.1C373.4,361.8,360.2,377.2,344.7,389.9L344.7,389.9z"/>
	<path class="st11" d="M236.5,301.5c-0.5,0-1-0.1-1.5-0.1c-0.1,0-0.2,0-0.3,0l-0.1,0.8l-6.7,55.4c2.8,0.2,5.7,0.4,8.6,0.4
		c8.1,0,16-1.1,23.6-2.9l-15.2-54.4C242.2,301.2,239.4,301.5,236.5,301.5z"/>
	<path class="st11" d="M400.2,208.2l60.9-17c-0.9-3-1.8-6-2.8-8.9c-2.4-7-5.1-13.8-8.1-20.6c-2.5-5.6-5.2-11-8.2-16.3
		c-1.3-2.3-2.6-4.7-4-7c-4.6-7.8-9.6-15.4-15.2-22.6l-49.9,39.1C385.1,170.7,394.4,188.8,400.2,208.2L400.2,208.2z"/>
	<path class="st11" d="M387.1,338.4l55.2,31.1c0.3-0.5,0.5-0.9,0.8-1.4c3.7-7,7.1-14.1,10.1-21.3c7.8-18.8,12.9-38.2,15.5-57.7
		l-62.9-7.6C402.9,301.9,396.5,321,387.1,338.4L387.1,338.4z"/>
	<path class="st11" d="M468.6,225.2c-1.3-9.2-3.2-18.3-5.6-27.3l-60.9,17c3.5,13.6,5.4,27.9,5.4,42.6c0,5.8-0.3,11.5-0.9,17.1
		l62.9,7.6c1.6-15.4,1.7-30.8,0.3-46C469.5,232.5,469.1,228.9,468.6,225.2z"/>
	<path class="st11" d="M398.8,280.7l-56.1-6.8c-1.8,11.8-5.6,23-11,33.3L381,335C389.9,318.4,396.1,300.1,398.8,280.7z"/>
	<path class="st11" d="M377.6,341.1l-49.2-27.7c-6.1,10.1-13.9,19-22.9,26.6l34.9,44.5C355.1,372.2,367.7,357.6,377.6,341.1z"/>
	<path class="st11" d="M236.5,428.5c-5.8,0-11.5-0.3-17.1-0.9l-7.6,63c2.3,0.2,4.5,0.4,6.8,0.6c0.3,0,0.7,0.1,1,0.1
		c0.5,0,1,0.1,1.5,0.1c1,0.1,2,0.1,2.9,0.2c3.2,0.2,6.5,0.3,9.7,0.3c1.1,0,2.1,0.1,3.2,0.1c4.7,0,9.3-0.2,13.9-0.5
		c1.2-0.1,2.3-0.2,3.5-0.3c3.6-0.3,7.2-0.6,10.8-1.1c1.3-0.2,2.6-0.3,3.9-0.5c4.6-0.6,9.2-1.4,13.7-2.3c0.2,0,0.4-0.1,0.6-0.1
		c4.3-0.9,8.6-1.9,12.8-3l-17-61.1C265.5,426.7,251.2,428.5,236.5,428.5z"/>
	<path class="st11" d="M159.3,402.2c4.5,2.4,9.2,4.7,14,6.7c12.6,5.3,26,9,40,11l6.8-56.1c-6.3-1-12.4-2.5-18.3-4.5
		c-5.1-1.8-10.1-3.9-14.9-6.4l-15.6,27.8L159.3,402.2z"/>
	<path class="st11" d="M334.8,388.7L300,344.2c-9.4,6.9-19.9,12.3-31.2,15.9l15.2,54.4C302.5,408.9,319.7,400.1,334.8,388.7z"/>
	<path class="st11" d="M400.5,257.5c0-14-1.8-27.7-5.1-40.7L340.9,232c2,8.2,3.1,16.7,3.1,25.5c0,3.2-0.2,6.3-0.4,9.5l56.1,6.8
		C400.2,268.4,400.5,263,400.5,257.5z"/>
	<path class="st11" d="M205.4,353c5,1.6,10.2,2.8,15.6,3.7l4.7-39l2.1-17.1c-3.4-0.7-6.6-1.8-9.7-3.2l-0.1,0.1l-27.6,49.2
		C195.2,349.2,200.2,351.3,205.4,353z"/>
	<path class="st11" d="M288.8,171.9l-5.4,9.6L262.8,218l-1.7,3c2.8,1.9,5.4,4.2,7.7,6.7l15.6-12.2l28.9-22.7c-3.1-3.7-6.5-7-10-10.2
		c-0.9-0.8-1.8-1.7-2.7-2.4c-3.1-2.6-6.4-4.9-9.8-7.1C290.2,172.7,289.5,172.3,288.8,171.9z"/>
	<path class="st11" d="M327.7,102.8l-4.3,7.6c0.1,0,0.1,0.1,0.2,0.1c5.3,3.1,10.3,6.5,15.2,10.2c4,3,7.9,6.2,11.6,9.6
		c4.6,4.2,9,8.6,13.2,13.2c1.7,1.9,3.4,3.9,5.1,5.9l49.8-39.1c-1.3-1.6-2.6-3.2-3.9-4.8c-2-2.3-4.1-4.6-6.2-6.9
		c-4.2-4.6-8.6-8.9-13.2-13.2c-7.7-7.1-16-13.8-24.8-19.9c-3.5-2.4-7.1-4.8-10.7-7c-1.8-1.1-3.5-2.2-5.3-3.2l-5.7,10.2L327.7,102.8
		L327.7,102.8z"/>
	<path class="st11" d="M345.6,135.2c-3.3-2.9-6.7-5.7-10.2-8.4c-4.8-3.6-9.8-7-15-10.1c-0.1-0.1-0.3-0.2-0.4-0.2l-27.7,49.2
		c0.6,0.4,1.2,0.8,1.8,1.2c4,2.6,7.8,5.4,11.5,8.4c0.4,0.4,0.9,0.8,1.3,1.2c4.3,3.7,8.2,7.7,11.9,12c0,0,0.1,0.1,0.1,0.1l44.5-34.9
		c-1.5-1.8-3-3.5-4.5-5.3C354.7,143.8,350.2,139.4,345.6,135.2z"/>
	<path class="st9" d="M158.1,322.7l-28.9-28.9c-13.3,13.3-13.3,34.9,0,48.3c1.6,1.6,3.4,3,5.2,4.3c6.2,4.2,13.5,6,20.7,5.7
		c8.1-0.4,16.1-3.7,22.3-9.9l-6.2-6.2L158.1,322.7z"/>
	<path class="st9" d="M206.8,260.3c7.8,0,14.9-2.6,20.7-7c2.4-1.8,4.6-4,6.4-6.4c4.4-5.7,7-12.9,7-20.7h-68.3
		C172.7,245.1,188,260.3,206.8,260.3z"/>
	<path class="st10" d="M418.7,110.3c1.5,1.8,2.9,3.6,4.3,5.5"/>
	<path class="st10" d="M354,54.9c0.2,0.1,0.4,0.2,0.5,0.3"/>
	<path class="st11" d="M221.5,291.3c2.3,1,4.6,1.8,7.1,2.3c2.2,0.5,4.6,0.8,6.9,0.8c0.3,0,0.6,0,1,0c0.9,0,1.7-0.1,2.6-0.1
		c1.3-0.1,2.6-0.2,3.9-0.5c2.3-0.4,4.6-1.1,6.7-1.9c2.3-0.9,4.6-2,6.7-3.4c2-1.3,3.8-2.7,5.5-4.3c1.8-1.7,3.5-3.6,4.9-5.7
		c1.3-1.9,2.5-3.9,3.4-6.1c1-2.3,1.8-4.6,2.3-7.1c0.5-2.2,0.8-4.6,0.8-6.9c0-0.3,0-0.6,0-1c0-2.2-0.2-4.4-0.6-6.5
		c-0.4-2.3-1.1-4.6-1.9-6.7c-0.4-1-0.9-2.1-1.3-3.1c-0.4-0.8-0.8-1.6-1.3-2.4c-0.2-0.4-0.5-0.8-0.8-1.3c-1.3-2-2.7-3.8-4.3-5.5
		c-1.7-1.8-3.6-3.5-5.7-4.9c0,0-0.1-0.1-0.1-0.1L221.5,291.3C221.5,291.3,221.5,291.3,221.5,291.3z"/>
</g>
<g>
	<path class="st0" d="M1369.9,122.4c0.1-0.7,0.1-1.4,0.2-2.1c0,0,0,0,0-0.1h-18.5l-0.1,0.5c-0.5,4.2-3.2,7.2-7.1,8.1
		c-1.5,0.3-3.1,0.5-4.6,0.5c-17.7,0-35.4,0-53.1,0c-1.5,0-3.1-0.2-4.6-0.5c-3.5-0.8-5.8-2.9-6.8-6c-0.4-1.2-0.6-2.6-0.6-4
		c-0.1-2-0.1-4.1,0-6.1v-1.9v-2.3l95.6,0.2V102c0-5.1,0-10.3,0-15.4c0-2.4-0.2-4.5-0.5-6.5c-0.8-5.3-3.2-9.8-7.3-13.3
		c-5.4-4.8-12.1-7.2-19.8-7.3c-8.4,0-16.9-0.1-25.4-0.1c-9.3,0-18.6,0-27.8,0h-5.7c-1.7,0-3.6,0.2-5.6,0.5c-3.4,0.6-6.5,1.7-9.4,3.3
		c-4.3,2.4-7.6,5.6-9.8,9.6c-2,3.6-3,7.5-3,12v14.4c0,6.5,0,13,0,19.5c0,1.3,0.1,2.7,0.3,4.1c1,7.2,4.9,12.9,11.5,16.9
		c4.9,2.9,10.5,4.4,16.6,4.4c17.3,0,34.5,0,51.8,0h5.8c5,0,9.7-1,13.9-3C1364.2,137.2,1368.8,131,1369.9,122.4z M1274.7,83.6
		c0.2-4.6,3-7.9,7.6-8.9c1.5-0.3,3.1-0.5,4.7-0.5c13.6,0,27.1,0,40.7,0h11.9c1.6,0,3.8,0.1,5.9,0.8c3.7,1.3,5.8,4,6.1,7.8
		c0.2,2.2,0.1,4.5,0.1,6.7c0,0.9,0,1.9,0,2.8v1.3h-77v-1.7c0-0.8,0-1.6,0-2.5C1274.6,87.6,1274.6,85.6,1274.7,83.6z"/>
	<path class="st0" d="M1775.1,80.1c-0.8-5.3-3.2-9.8-7.3-13.3c-5.4-4.8-12.1-7.2-19.8-7.3c-8.4,0-16.9-0.1-25.4-0.1
		c-9.3,0-18.6,0-27.8,0h-5.7c-1.7,0-3.6,0.2-5.6,0.5c-3.4,0.6-6.5,1.7-9.4,3.3c-4.3,2.4-7.6,5.6-9.8,9.6c-2,3.6-3,7.5-3,12v14.4
		c0,6.5,0,13,0,19.5c0,1.3,0.1,2.7,0.3,4.1c1,7.2,4.9,12.9,11.5,16.9c4.9,2.9,10.5,4.4,16.6,4.4c17.3,0,34.5,0,51.8,0h5.8
		c5,0,9.7-1,13.9-3c8.3-4,12.9-10.2,14-18.8c0.1-0.7,0.1-1.4,0.2-2.1c0,0,0,0,0-0.1h-18.5l-0.1,0.5c-0.5,4.2-3.2,7.2-7.1,8.1
		c-1.5,0.3-3.1,0.5-4.6,0.5c-17.7,0-35.4,0-53.1,0c-1.5,0-3.1-0.2-4.6-0.5c-3.5-0.8-5.8-2.9-6.8-6c-0.4-1.2-0.6-2.6-0.6-4
		c-0.1-2-0.1-4.1,0-6.1v-1.9v-2.3l95.6,0.2v-6.7c0-5.1,0-10.3,0-15.4C1775.5,84.2,1775.4,82.1,1775.1,80.1z M1757,89.5
		c0,0.9,0,1.9,0,2.8v1.3h-77v-1.7c0-0.8,0-1.6,0-2.5c0-1.9,0-4,0.1-5.9c0.2-4.6,3-7.9,7.6-8.9c1.5-0.3,3.1-0.5,4.7-0.5
		c13.6,0,27.1,0,40.7,0h11.9c1.6,0,3.8,0.1,5.9,0.8c3.7,1.3,5.8,4,6.1,7.8C1757,85.1,1757,87.3,1757,89.5z"/>
	<path class="st0" d="M1086.8,80.1c-0.8-5.3-3.2-9.8-7.3-13.3c-5.4-4.8-12.1-7.2-19.8-7.3c-8.4,0-16.9-0.1-25.4-0.1
		c-9.3,0-18.6,0-27.7,0h-5.7c-1.7,0-3.6,0.2-5.6,0.5c-3.4,0.6-6.5,1.7-9.4,3.3c-4.3,2.4-7.6,5.6-9.8,9.6c-2,3.6-3,7.5-3,12v14.3
		c0,6.6,0,13.1,0,19.7c0,1.3,0.1,2.7,0.3,4.1c1,7.2,4.9,12.9,11.5,16.9c4.9,2.9,10.5,4.4,16.6,4.4c17.3,0,34.5,0,51.8,0h5.8
		c5,0,9.7-1,13.9-3c8.3-4,12.9-10.2,14-18.8c0.1-0.7,0.1-1.4,0.2-2.1c0,0,0,0,0-0.1h-18.5l-0.1,0.5c-0.5,4.2-3.2,7.2-7.1,8.1
		c-1.5,0.3-3.1,0.5-4.6,0.5c-17.7,0-35.4,0-53.1,0c-1.5,0-3.1-0.2-4.6-0.5c-3.5-0.8-5.8-2.9-6.8-6c-0.4-1.2-0.6-2.6-0.6-4
		c-0.1-2-0.1-4.1,0-6.1v-1.9c0-0.3,0-0.5,0.1-0.8l0.2-1.3h95.3V102c0-5.1,0-10.3,0-15.4C1087.2,84.2,1087.1,82.1,1086.8,80.1z
		 M1068.6,89.6c0,0.9,0,1.9,0,2.8c0,0.3-0.1,0.5-0.2,0.6l-0.2,0.6l-0.7,0.1h-75.7l-0.1-1.1c0-0.2-0.1-0.4-0.1-0.6c0-0.8,0-1.6,0-2.5
		c0-1.9,0-4,0.1-5.9c0.2-4.6,3-7.9,7.6-8.9c1.5-0.3,3.1-0.5,4.7-0.5c13.6,0,27.1,0,40.7,0h11.9c1.6,0,3.8,0.1,5.9,0.8
		c3.7,1.3,5.8,4,6.1,7.8C1068.7,85.2,1068.6,87.4,1068.6,89.6z"/>
	<path class="st0" d="M575.3,81.8V16.3h-18.7v127.8c2.2,0,3.9,0,5.9,0c3,0,6.5,0,12.7-0.1v-14.4c0.1-12.8,0-9.9,0-22.7L575.3,81.8
		L575.3,81.8z"/>
	<path class="st0" d="M1880,72.7c-2.2-4.2-5.4-7.4-9.5-9.7s-8.8-3.4-14.4-3.5c-7.5-0.1-14.3-0.1-20.7,0c-4.3,0.1-8.6,1-12.3,2.6
		c-2.5,1.1-4.7,2.8-6.7,4.7l-0.1,0.1v-7.2h-18.7c0,0,0.4,84.7,0.1,84.5h18.5l0.3-57.3c0-1.7,0.1-3.2,0.3-4.5c0.4-3.3,2.2-5.7,5.3-7
		c2.2-0.9,4.4-1.1,6.3-1.1c8.1,0,16.1,0,24.2,0c1.3,0,2.6,0.2,3.9,0.4c4.7,0.7,7.7,4.1,8,9.1l0,0h18.6
		C1882.7,79.3,1881.6,75.7,1880,72.7z"/>
	<path class="st0" d="M1192.8,72.7c-2.2-4.2-5.4-7.4-9.5-9.7s-8.8-3.4-14.4-3.5c-7.5-0.1-14.3-0.1-20.7,0c-4.3,0.1-8.6,1-12.3,2.6
		c-2.5,1.1-4.7,2.8-6.7,4.7l-0.1,0.1v-7.2h-18.7c0,0,0.4,84.7,0.1,84.5h18.5l0.3-57.3c0-1.7,0.1-3.2,0.3-4.5c0.4-3.3,2.2-5.7,5.3-7
		c2.2-0.9,4.4-1.1,6.3-1.1c8.1,0,16.1,0,24.2,0c1.3,0,2.6,0.2,3.9,0.4c4.7,0.7,7.7,4.1,8,9.1l0,0h18.6
		C1195.5,79.3,1194.4,75.7,1192.8,72.7z"/>
	<path class="st0" d="M923.3,144.2c1,0,2-0.1,3-0.2h0.2c5.3-0.6,10.2-2.5,14.3-5.4c3.6-2.6,6.2-5.7,7.9-9.6c1.3-3.1,2-6.4,2-10.2
		c0-10.9,0-21.8,0-32.7v-1.4c0-1.8-0.1-4.1-0.6-6.3c-1.4-5.6-4.5-10.1-9.2-13.4c-5.3-3.8-11.5-5.7-18.4-5.7c-14.9,0-29.7,0-44.6,0
		c-1.8,0-3.6,0.2-5.4,0.5c-4.1,0.7-8,2.2-11.6,4.6c-0.2,0.2-1.5,1-2.5,1.7l0,0v-6.4h-18.6v107.4c2,0,5.5,0,9,0c3.7,0,7.4,0,9.6,0
		v-50.8c0-10,0-20.1,0-30.1v-0.5c0-1,0-2,0.1-3.1c0.5-3.8,2.5-6.4,5.9-7.5c1.6-0.6,3.3-0.9,4.9-0.9c6.5-0.1,12.9,0,19.4,0h6.6h6.8
		c6.4,0,12.8,0,19.2,0c1.5,0,3.2,0.3,4.9,0.9c3.6,1.3,5.9,4.5,5.9,8.5c0,12.1,0,24.2,0,36.3c0,4.7-2.8,8.1-7.3,9.1
		c-1.5,0.3-3,0.5-4.6,0.5c-12.6,0-22.9,0-33.6,0h-9.8l-13.9,14.8c14.4,0,44.3,0,59.1,0L923.3,144.2z"/>
	<path class="st0" d="M1505.5,143.8V19.1l-18.6,0.1v98.7c0,1,0,2-0.1,3.1c-0.5,3.8-2.5,6.4-5.9,7.5c-1.6,0.6-3.3,0.9-4.9,0.9h-51.9
		c-1.5,0-3.2-0.3-4.9-0.9c-3.6-1.3-5.9-4.5-5.9-8.5c0-12.1,0-24.2,0-36.3c0-4.7,2.8-8.1,7.3-9.1c1.5-0.3,3-0.5,4.6-0.5h43.3
		l13.9-14.8c-14.4,0-44.3,0-59.1,0h-1.5c-1,0-2,0.1-3,0.2h-0.2c-5.4,0.6-10.2,2.5-14.3,5.4c-3.6,2.6-6.2,5.8-7.9,9.6
		c-1.3,3.1-2,6.4-2,10.2c0,11.4,0,22.7,0,34.1c0,1.8,0.1,4.1,0.6,6.3c1.4,5.6,4.5,10.1,9.2,13.4c5.3,3.8,11.5,5.7,18.4,5.7
		c14.9,0,29.7,0,44.6,0c1.8,0,3.6-0.2,5.4-0.5c4.1-0.7,8-2.2,11.6-4.6c0.2-0.2,1.2-0.8,2.5-1.5l0,0l0,0l0,0v6.2L1505.5,143.8
		L1505.5,143.8z"/>
	<polygon class="st0" points="1214.3,17.3 1214.3,144.2 1232.9,144.2 1232.9,17.3 	"/>
	<path class="st0" d="M664.2,17.3v57.8c-15.7,0-67.6,0-76.6,0l-12.2,14.8c14.6,0,66.8,0,88.8,0v54.3h18.7v-127L664.2,17.3
		L664.2,17.3z"/>
	<path class="st0" d="M1640.3,59.8c0-0.2,0-0.4,0-0.6c-2.4,0-4.8,0-7.2,0c-3.8,0-7.5,0-11.3,0l-0.1,6.6c0,0-7.5-6.8-20.1-6.8
		c-7,0-13.9,0-20.9,0c-7.6,0-15.2,0-22.8,0c-2.2,0-4,0.1-5.6,0.4c-4.4,0.7-8.3,2.2-11.7,4.3c-4.9,3.1-8.2,7.2-9.9,12.1
		c-0.9,2.6-1.4,5.5-1.4,8.8c0,7.5,0,14.9,0,22.4v11.2c0,2,0.1,3.8,0.4,5.4c0.8,4.4,2.6,8.3,5.6,11.4c5.5,5.9,12.5,8.9,20.7,9
		c13.7,0.2,29.7,0.1,45.2,0.1h1.8l13.9-14.8c-16.9,0-41.3,0-57.3,0c-1.5,0-3.1-0.2-4.9-0.7c-3.9-1.1-6.4-4.1-6.7-8.4
		c0-0.5,0-0.9,0-1.4v-12.2V84.8c0-1.5,0.1-3.1,0.7-4.6c1-2.7,2.9-4.5,5.5-5.3c1.7-0.6,3.4-0.8,4.9-0.9c6.5-0.1,12.9,0,19.4,0h6.6
		h6.5c6.5,0,13,0,19.5,0c1.5,0,3.1,0.3,4.7,0.9c2.8,0.9,4.7,3,5.5,5.9c0.3,1.2,0.5,2.4,0.5,3.5l0.1,68.7l0,0v0.3c0,1,0,2,0,3
		c0,0.8-0.2,1.8-0.6,2.7c-1,2.2-2.7,3.8-5.2,4.7c-1.7,0.6-3.6,1-5.6,0.9h-22.2c-10.2,0-20.6,0-29.3,0l-12.2,14.8
		c13.4,0.1,36.9,0,54.2,0h12.2c1.3,0,2.6-0.1,3.8-0.3c4.2-0.5,8.3-1.8,12-4.1c4.5-2.8,7.7-6.3,9.6-10.8c1.3-3,1.9-6.3,1.9-10.4
		c0-21.3,0-42.6,0-63.8L1640.3,59.8z"/>
	<path class="st0" d="M816.1,59.9c0-0.1,0-0.3,0-0.4h-18.6v11c0,15.9,0,31.8,0,47.7c0,1.3-0.1,2.6-0.4,3.9c-0.6,2.8-2.3,4.9-4.9,6.1
		c-1.9,0.9-4,1.3-6.7,1.3h-11.7c-12.7,0-25.3,0-38,0c-1.6,0-3.1-0.2-4.6-0.5c-3.5-0.8-5.9-2.9-7-6.1c-0.5-1.5-0.5-3-0.5-4.4V60.3
		c0-0.2,0-0.4,0-0.6h-18.5v13.1c0,15.1,0,30.3,0,45.4c0,1.7,0.1,3.4,0.3,5.2c0.6,4.4,2.4,8.4,5.4,11.7c5.5,6,12.5,9.1,20.9,9.2
		l48.5,0.1c5.7,0,10.8-1.4,14.9-4.1c0.2-0.2,1.4-0.9,2.4-2.1l0,0V156c0,2.8-1.4,5.1-3.9,6.8c-2,1.3-4.4,1.9-7.3,1.9l0,0h-17.5
		c-11.8,0-24.7,0-34.3,0l-12.3,14.6c16.5,0,51.5,0,66.3,0c1.1,0,2.4-0.1,3.9-0.3c5.1-0.6,9.8-2.4,13.9-5.4
		c6.4-4.7,9.6-10.9,9.7-18.4c0.1-23.5,0.1-47.4,0-70.5L816.1,59.9L816.1,59.9z"/>
</g>
</svg>
