<?xml version="1.0" encoding="UTF-8" standalone="no"?>
<!-- Generator: Adobe Illustrator 16.0.3, SVG Export Plug-In . SVG Version: 6.00 Build 0)  -->

<svg
   xmlns:sketch="http://www.bohemiancoding.com/sketch/ns"
   xmlns:dc="http://purl.org/dc/elements/1.1/"
   xmlns:cc="http://creativecommons.org/ns#"
   xmlns:rdf="http://www.w3.org/1999/02/22-rdf-syntax-ns#"
   xmlns:svg="http://www.w3.org/2000/svg"
   xmlns="http://www.w3.org/2000/svg"
   xmlns:sodipodi="http://sodipodi.sourceforge.net/DTD/sodipodi-0.dtd"
   xmlns:inkscape="http://www.inkscape.org/namespaces/inkscape"
   version="1.1"
   id="Layer_1"
   x="0px"
   y="0px"
   width="1300px"
   height="1300px"
   viewBox="0 0 1300 1300"
   enable-background="new 0 0 1300 1300"
   xml:space="preserve"
   sodipodi:docname="logo.svg"
   inkscape:version="0.92.4 (unknown)"><metadata
   id="metadata3808"><rdf:RDF><cc:Work
       rdf:about=""><dc:format>image/svg+xml</dc:format><dc:type
         rdf:resource="http://purl.org/dc/dcmitype/StillImage" /></cc:Work></rdf:RDF></metadata><defs
   id="defs3806" /><sodipodi:namedview
   pagecolor="#ffffff"
   bordercolor="#666666"
   borderopacity="1"
   objecttolerance="10"
   gridtolerance="10"
   guidetolerance="10"
   inkscape:pageopacity="0"
   inkscape:pageshadow="2"
   inkscape:window-width="2560"
   inkscape:window-height="1376"
   id="namedview3804"
   showgrid="false"
   showguides="false"
   inkscape:zoom="0.64455503"
   inkscape:cx="967.82081"
   inkscape:cy="528.39315"
   inkscape:window-x="0"
   inkscape:window-y="27"
   inkscape:window-maximized="1"
   inkscape:current-layer="Layer_1" />
<title
   id="title3790">Vector 1</title>
<desc
   id="desc3792">Created with Sketch.</desc>
<g
   id="Page-1"
   sketch:type="MSPage"
   transform="translate(4.6543737,-17.066037)">
	<g
   id="solidity"
   transform="translate(402,118)"
   sketch:type="MSLayerGroup">
		<g
   id="Group"
   sketch:type="MSShapeGroup">
			<path
   id="Shape"
   enable-background="new    "
   d="M 371.772,135.308 241.068,367.61 H -20.158 L 110.456,135.308 h 261.316"
   inkscape:connector-curvature="0"
   style="opacity:0.45" />
			<path
   id="Shape_1_"
   enable-background="new    "
   d="M 241.068,367.61 H 502.386 L 371.772,135.308 H 110.456 Z"
   inkscape:connector-curvature="0"
   style="opacity:0.6" />
			<path
   id="Shape_2_"
   enable-background="new    "
   d="M 110.456,599.822 241.068,367.61 110.456,135.308 -20.158,367.61 Z"
   inkscape:connector-curvature="0"
   style="opacity:0.8" />
			<path
   id="Shape_3_"
   enable-background="new    "
   d="M 111.721,948.275 242.425,715.972 H 503.743 L 373.038,948.275 H 111.721"
   inkscape:connector-curvature="0"
   style="opacity:0.45" />
			<path
   id="Shape_4_"
   enable-background="new    "
   d="M 242.424,715.973 H -18.893 L 111.72,948.276 h 261.317 z"
   inkscape:connector-curvature="0"
   style="opacity:0.6" />
			<path
   id="Shape_5_"
   enable-background="new    "
   d="M 373.038,483.761 242.424,715.973 373.038,948.276 503.742,715.973 Z"
   inkscape:connector-curvature="0"
   style="opacity:0.8" />
		</g>
	</g>
</g>
<path
   inkscape:connector-curvature="0"
   class="cls-1"
   d="m 619.29619,1213.1659 h -9.98137 l -9.43771,-33.1407 q -0.60888,-2.1746 -1.52221,-6.2629 -0.91332,-4.0882 -1.10904,-5.6756 -0.39142,2.4355 -1.23951,6.3063 -0.84809,3.8707 -1.43523,5.7844 l -9.1985,32.9885 h -9.85089 l -7.17613,-27.8347 -7.30662,-27.7478 h 9.28548 l 7.93726,32.3579 a 139.69551,139.69551 0 0 1 2.65299,13.7651 q 0.41317,-3.2401 1.26126,-7.2196 0.84809,-3.9794 1.52222,-6.5237 l 9.04628,-32.4667 h 9.00279 l 9.28549,32.6188 a 122.03786,122.03786 0 0 1 2.80522,13.526 99.117704,99.117704 0 0 1 2.73998,-13.6999 l 7.91549,-32.3144 h 9.19851 z"
   id="path3897"
   style="stroke-width:2.17458773" /><path
   inkscape:connector-curvature="0"
   class="cls-1"
   d="m 679.98893,1213.1659 h -31.4228 v -55.5825 h 31.4228 v 7.6763 h -22.35477 v 15.2221 h 20.94128 v 7.6111 h -20.94128 v 17.3967 h 22.35477 z"
   id="path3899"
   style="stroke-width:2.17458773" /><path
   inkscape:connector-curvature="0"
   class="cls-1"
   d="m 699.01656,1157.5834 h 16.50513 q 11.48182,0 16.5921,3.3489 a 11.721028,11.721028 0 0 1 5.11028,10.5685 12.808322,12.808322 0 0 1 -2.50078,8.0894 11.220872,11.220872 0 0 1 -7.21963,4.0666 v 0.3696 a 14.352278,14.352278 0 0 1 8.69835,4.3492 13.178001,13.178001 0 0 1 2.76173,8.6983 14.265295,14.265295 0 0 1 -5.21901,11.7211 22.485236,22.485236 0 0 1 -14.54799,4.2404 h -20.18018 z m 9.08978,22.9637 h 8.69836 a 14.961163,14.961163 0 0 0 8.32867,-1.8049 6.9151887,6.9151887 0 0 0 2.65299,-6.1977 6.154083,6.154083 0 0 0 -2.82696,-5.6538 17.701143,17.701143 0 0 0 -8.98105,-1.7397 h -7.87201 z m 0,7.3719 v 17.5924 h 9.65517 a 14.221803,14.221803 0 0 0 8.69835,-2.1747 8.0677202,8.0677202 0 0 0 2.80522,-6.8716 7.3283603,7.3283603 0 0 0 -2.95744,-6.5238 15.700523,15.700523 0 0 0 -9.00279,-2.1746 z"
   id="path3901"
   style="stroke-width:2.17458773" /><path
   inkscape:connector-curvature="0"
   class="cls-1"
   d="m 797.32967,1213.1659 -6.91519,-17.6794 h -22.28952 l -6.84995,17.6794 h -6.52376 l 21.96333,-55.8434 h 5.43647 l 21.85461,55.7999 z m -8.93755,-23.4856 -6.52376,-17.2227 q -1.26127,-3.2618 -2.58776,-8.0242 a 72.283293,72.283293 0 0 1 -2.32681,8.1111 l -6.52377,17.2228 z"
   id="path3903"
   style="stroke-width:2.17458773" /><path
   inkscape:connector-curvature="0"
   class="cls-1"
   d="m 854.69529,1198.3787 a 13.634665,13.634665 0 0 1 -5.32773,11.4383 23.072374,23.072374 0 0 1 -14.43926,4.11 36.185139,36.185139 0 0 1 -15.22212,-2.5443 v -6.2193 a 39.860192,39.860192 0 0 0 7.45884,2.1746 39.142577,39.142577 0 0 0 7.98073,0.8263 16.113695,16.113695 0 0 0 9.74215,-2.4573 8.0459743,8.0459743 0 0 0 3.26188,-6.8282 8.6983505,8.6983505 0 0 0 -1.15253,-4.7406 10.872938,10.872938 0 0 0 -3.87076,-3.414 54.190724,54.190724 0 0 0 -8.26343,-3.5229 26.399494,26.399494 0 0 1 -11.0904,-6.5237 14.526245,14.526245 0 0 1 -3.32712,-9.9161 12.329912,12.329912 0 0 1 4.82758,-10.2207 20.071444,20.071444 0 0 1 12.76483,-3.8055 37.642112,37.642112 0 0 1 15.22211,3.0445 l -2.02236,5.6322 a 34.445469,34.445469 0 0 0 -13.37371,-2.8923 13.047526,13.047526 0 0 0 -8.02423,2.1746 7.2631227,7.2631227 0 0 0 -2.8922,6.1106 9.3724732,9.3724732 0 0 0 1.06555,4.7406 10.003103,10.003103 0 0 0 3.58807,3.3924 44.535555,44.535555 0 0 0 7.74153,3.4141 30.618194,30.618194 0 0 1 12.02546,6.6977 13.156255,13.156255 0 0 1 3.32712,9.329 z"
   id="path3905"
   style="stroke-width:2.17458773" /><path
   inkscape:connector-curvature="0"
   class="cls-1"
   d="m 909.10352,1198.3787 a 13.634665,13.634665 0 0 1 -5.32775,11.4383 23.072374,23.072374 0 0 1 -14.43929,4.11 36.185139,36.185139 0 0 1 -15.22212,-2.5443 v -6.2193 a 39.860192,39.860192 0 0 0 7.45883,2.1746 39.142577,39.142577 0 0 0 7.98074,0.8263 16.113695,16.113695 0 0 0 9.74216,-2.4573 8.0459743,8.0459743 0 0 0 3.26188,-6.8282 8.6983505,8.6983505 0 0 0 -1.15253,-4.7406 10.872938,10.872938 0 0 0 -3.87077,-3.414 54.190724,54.190724 0 0 0 -8.26343,-3.5229 26.399494,26.399494 0 0 1 -11.0904,-6.5237 14.526245,14.526245 0 0 1 -3.32712,-9.9161 12.329912,12.329912 0 0 1 4.82759,-10.2207 20.071444,20.071444 0 0 1 12.76482,-3.8055 37.642112,37.642112 0 0 1 15.22212,3.0445 l -2.02241,5.6322 a 34.445469,34.445469 0 0 0 -13.37367,-2.8923 13.047526,13.047526 0 0 0 -8.02423,2.1746 7.2631227,7.2631227 0 0 0 -2.8922,6.1106 9.3724732,9.3724732 0 0 0 1.06555,4.7406 10.003103,10.003103 0 0 0 3.58807,3.3924 44.535555,44.535555 0 0 0 7.74153,3.4141 30.618194,30.618194 0 0 1 12.02547,6.6977 13.156255,13.156255 0 0 1 3.32716,9.329 z"
   id="path3907"
   style="stroke-width:2.17458773" /><path
   inkscape:connector-curvature="0"
   class="cls-1"
   d="m 963.12026,1213.1659 h -30.9662 v -55.5825 h 30.9879 v 5.7409 h -24.5293 v 17.9186 h 23.0288 v 5.6975 h -23.0288 v 20.3976 h 24.5293 z"
   id="path3909"
   style="stroke-width:2.17458773" /><path
   inkscape:connector-curvature="0"
   class="cls-1"
   d="m 1011.7223,1213.1659 -18.85374,-49.3197 h -0.3044 q 0.5219,5.8497 0.5436,13.9174 v 35.3588 h -5.9583 v -55.539 h 9.742 l 17.59254,45.8403 h 0.3044 l 17.6794,-45.8403 h 9.6552 v 55.5825 h -6.5237 v -35.8155 q 0,-6.1541 0.5436,-13.3737 h -0.3045 l -19.0058,49.1892 z"
   id="path3911"
   style="stroke-width:2.17458773" /><path
   inkscape:connector-curvature="0"
   class="cls-1"
   d="m 1069.0879,1157.5834 h 15.7005 q 11.0687,0 16.005,3.3053 a 11.677536,11.677536 0 0 1 4.9363,10.4599 12.068961,12.068961 0 0 1 -2.7617,8.1547 13.264984,13.264984 0 0 1 -8.046,4.1535 v 0.3696 q 12.6561,2.1746 12.6561,13.3085 a 14.287041,14.287041 0 0 1 -5.0451,11.634 21.441434,21.441434 0 0 1 -14.0912,4.1753 h -19.3974 z m 6.5238,23.79 h 10.6337 a 17.396701,17.396701 0 0 0 9.8509,-2.1746 8.2851789,8.2851789 0 0 0 3.001,-7.2414 7.3283603,7.3283603 0 0 0 -3.3489,-6.7412 20.897787,20.897787 0 0 0 -10.6555,-2.1745 h -9.503 z m 0,5.48 v 20.7891 h 11.5905 a 16.50512,16.50512 0 0 0 10.1336,-2.6096 9.6116776,9.6116776 0 0 0 3.3923,-8.1546 8.6983505,8.6983505 0 0 0 -3.4793,-7.6111 18.592725,18.592725 0 0 0 -10.5902,-2.4356 z"
   id="path3913"
   style="stroke-width:2.17458773" /><path
   inkscape:connector-curvature="0"
   class="cls-1"
   d="m 1131.2159,1213.1659 v -55.5825 h 6.5237 v 49.7546 h 24.5294 v 5.8496 z"
   id="path3915"
   style="stroke-width:2.17458773" /><path
   inkscape:connector-curvature="0"
   class="cls-1"
   d="m 1197.4321,1185.3747 14.8306,-27.7913 h 7.0023 l -18.5493,34.0105 v 21.5503 h -6.5238 v -21.2458 l -18.5057,-34.3367 h 7.0674 z"
   id="path3917"
   style="stroke-width:2.17458773" /><path
   inkscape:connector-curvature="0"
   class="cls-2"
   d="m 916.6928,872.45154 c 0,0.41317 0,0.82635 0,1.26127 a 26.83442,26.83442 0 0 1 -53.66884,0 c 0,-0.43492 0,-0.8481 0,-1.26127 H 772.90905 V 1106.4806 H 1006.9382 V 872.45154 Z m -32.09693,208.97786 -11.39484,-56.3871 h -0.19571 l -12.32991,56.3871 h -15.70052 l -17.78813,-82.85178 h 15.50481 l 10.61199,56.38698 h 0.19572 l 12.78656,-56.38698 h 14.50451 l 11.48182,57.08288 h 0.19571 l 12.11241,-57.08288 h 15.22218 l -19.76702,82.85178 z m 85.37429,0 -5.2842,-18.4405 h -27.8999 l -4.0666,18.4405 h -15.5048 l 20.0497,-82.85178 h 24.4641 l 24.3771,82.85178 z"
   id="path3921"
   style="fill:#654ff0;fill-opacity:1;stroke-width:2.17458773" /><polygon
   class="cls-2"
   points="180.3,67.39 177.3,67.39 174.19,81.37 183.87,81.37 "
   id="polygon3923-5"
   transform="matrix(2.1745877,0,0,2.1745877,561.03898,872.45154)"
   style="fill:#654ff0;fill-opacity:1" /></svg>